<svg xmlns="http://www.w3.org/2000/svg" viewBox="0 0 788 788" width="788" height="788">
  <rect x="0" y="0" width="788" height="788" fill="#1a1d23"/>
  <circle cx="394" cy="394" r="340" fill="none" stroke="#1e5a8a" stroke-width="7" stroke-dasharray="12 8" opacity="0.7"/>
  <line x1="394.0" y1="274.0" x2="394.0" y2="54.0" stroke="#007acc" stroke-width="14" stroke-linecap="round" opacity="0.8"/>
  <line x1="487.8" y1="319.2" x2="659.8" y2="182.0" stroke="#007acc" stroke-width="14" stroke-linecap="round" opacity="0.8"/>
  <line x1="511.0" y1="420.7" x2="725.5" y2="469.7" stroke="#007acc" stroke-width="14" stroke-linecap="round" opacity="0.8"/>
  <line x1="446.1" y1="502.1" x2="541.5" y2="700.3" stroke="#007acc" stroke-width="14" stroke-linecap="round" opacity="0.8"/>
  <line x1="341.9" y1="502.1" x2="246.5" y2="700.3" stroke="#007acc" stroke-width="14" stroke-linecap="round" opacity="0.8"/>
  <line x1="277.0" y1="420.7" x2="62.5" y2="469.7" stroke="#007acc" stroke-width="14" stroke-linecap="round" opacity="0.8"/>
  <line x1="300.2" y1="319.2" x2="128.2" y2="182.0" stroke="#007acc" stroke-width="14" stroke-linecap="round" opacity="0.8"/>
  <circle cx="394.0" cy="54.0" r="50" fill="#007acc" opacity="0.2"/>
  <circle cx="394.0" cy="54.0" r="38" fill="#3ba0e6"/>
  <circle cx="659.8" cy="182.0" r="50" fill="#007acc" opacity="0.2"/>
  <circle cx="659.8" cy="182.0" r="38" fill="#3ba0e6"/>
  <circle cx="725.5" cy="469.7" r="50" fill="#007acc" opacity="0.2"/>
  <circle cx="725.5" cy="469.7" r="38" fill="#3ba0e6"/>
  <circle cx="541.5" cy="700.3" r="50" fill="#007acc" opacity="0.2"/>
  <circle cx="541.5" cy="700.3" r="38" fill="#3ba0e6"/>
  <circle cx="246.5" cy="700.3" r="50" fill="#007acc" opacity="0.2"/>
  <circle cx="246.5" cy="700.3" r="38" fill="#3ba0e6"/>
  <circle cx="62.5" cy="469.7" r="50" fill="#007acc" opacity="0.2"/>
  <circle cx="62.5" cy="469.7" r="38" fill="#3ba0e6"/>
  <circle cx="128.2" cy="182.0" r="50" fill="#007acc" opacity="0.2"/>
  <circle cx="128.2" cy="182.0" r="38" fill="#3ba0e6"/>
  <circle cx="394" cy="394" r="120" fill="#007acc"/>
  <circle cx="394" cy="394" r="100" fill="#1a1d23"/>
  <text x="394" y="434" text-anchor="middle" font-family="-apple-system, SF Pro Display, Helvetica Neue, Arial, sans-serif" font-weight="900" font-size="130" fill="#e8eaed">K</text>
</svg>